<svg width="168" height="65" viewBox="0 0 168 65" fill="none" xmlns="http://www.w3.org/2000/svg">
<g clip-path="url(#clip0_20_226)">
<path fill-rule="evenodd" clip-rule="evenodd" d="M58.5049 8.43998C59.5993 8.089 60.8894 7.88013 62.1753 7.88013H63.522V23.1726H62.1753C60.8894 23.1726 59.5993 22.9688 58.5049 22.6101C57.5172 22.2986 56.6237 21.8952 55.9221 21.2775C54.5941 20.2038 53.4972 18.419 53.4972 15.4935C53.4972 12.631 54.5941 10.8489 55.9221 9.77796C56.6237 9.16536 57.5172 8.74494 58.5049 8.43998ZM79.2429 26.9169C85.639 26.4937 89.014 24.9587 90.7993 23.8431C94.1728 21.7428 95.7085 18.7633 95.7085 15.4935C95.7085 11.1986 92.9828 8.62785 90.7993 7.21235C87.7698 5.22408 83.5016 4.40907 79.2429 4.14503C78.0999 4.04113 76.9582 4.04113 75.8235 4.04113H74.5807V0H63.1241V4.04113H61.9285C60.7882 4.04113 59.6411 4.04113 58.5049 4.14503C54.1882 4.40907 49.9319 5.22408 46.9417 7.21235C44.7636 8.62785 42.0312 11.1986 42.0312 15.4935C42.0312 18.7633 43.5747 21.7428 46.9417 23.8431C48.6877 24.9587 52.0588 26.4937 58.5049 26.9169C59.5465 26.9591 60.6868 27.0143 61.9285 27.0143H63.1241V31.3065H74.5807V27.0143H75.8235C77.0582 27.0143 78.1999 26.9591 79.2429 26.9169ZM79.2429 8.43998C80.2306 8.74494 81.1266 9.16536 81.8244 9.77796C83.1562 10.8489 84.2506 12.631 84.2506 15.4935C84.2506 18.419 83.1562 20.2038 81.8244 21.2775C81.1266 21.8952 80.2306 22.2986 79.2429 22.6101C78.0999 22.9688 76.8626 23.1726 75.5184 23.1726H74.2283V7.88013H75.5184C76.8626 7.88013 78.0999 8.089 79.2429 8.43998Z" fill="white"/>
<path fill-rule="evenodd" clip-rule="evenodd" d="M18.6291 7.35581L24.5375 18.0194H12.7253L18.3179 7.12914H18.4852L18.6291 7.35581ZM26.9503 22.2775L32.0276 31.3065H45.2682L27.3035 0H16.3238L0 31.3065H5.89836L10.5721 22.2775H26.9503Z" fill="white"/>
<path fill-rule="evenodd" clip-rule="evenodd" d="M98.9483 31.3065L110.602 7.083H110.811L123.692 31.3065H136.937L119.842 0H108.649L93.209 31.3065H98.9483Z" fill="white"/>
<path fill-rule="evenodd" clip-rule="evenodd" d="M130.631 4.73089H143.366V31.3065H155.226V4.73089H168V0H130.631V4.73089Z" fill="white"/>
<path d="M62.3395 58.6217C66.4782 59.3067 74.4035 60.3795 84.1122 60.5984C93.8008 60.8584 105.193 60.2693 115.953 58.5762C126.715 56.9315 136.806 54.1877 143.966 51.2177C151.19 48.3675 155.225 44.8874 155.203 44.874C155.243 44.898 151.038 48.9178 143.392 52.3681C135.823 55.9517 125.138 59.3834 113.889 61.6066C102.645 63.8916 90.8621 64.928 81.2648 64.9898C71.6788 65.106 64.2327 64.2013 61.6209 63.7681C52.5997 62.366 46.0482 59.871 42.0522 57.475C38.0092 55.0611 36.6673 52.8766 37.0893 52.4567C37.5396 51.9549 39.5428 52.9697 43.614 54.2964C47.6896 55.633 53.8918 57.306 62.3395 58.6217Z" fill="#F37B09"/>
<path d="M44.4388 40.2304C45.316 40.2304 46.7269 40.3342 47.8791 41.3011L48.2781 41.3516L48.8007 39.8565C47.1067 39.1868 45.5675 39.1604 44.2972 39.1465C42.5856 39.1465 40.3447 39.6434 38.734 40.8184C37.4547 41.7372 36.8496 43.0551 36.8496 44.1778C36.8496 45.2879 37.4547 46.6042 38.734 47.5252C40.3447 48.6839 42.7476 49.078 44.459 49.078C45.6414 49.078 46.6772 49.0745 48.0368 48.5763L48.628 47.3155L48.3203 47.1847C46.9192 47.9795 45.3774 48.1788 44.459 48.116C43.5921 47.9928 42.3748 47.767 41.5863 46.7584C40.9324 45.9409 40.7525 44.9812 40.7525 44.1778C40.7525 43.3445 40.9529 42.4204 41.607 41.6029C42.3955 40.5766 43.532 40.2304 44.4388 40.2304Z" fill="#F37B09"/>
<path d="M52.5862 48.7777L58.9149 42.7365V48.7777H62.4229V39.3882H61.3713H60.5278L54.0439 45.4814V39.3882H50.5356V48.7777H51.8688H52.5862Z" fill="#F37B09"/>
<path d="M71.7474 40.2304C72.6246 40.2304 74.0355 40.3342 75.1877 41.3011L75.5867 41.3516L76.1093 39.8565C74.4153 39.1868 72.876 39.1604 71.6058 39.1465C69.8942 39.1465 67.6533 39.6434 66.0426 40.8184C64.7633 41.7372 64.1582 43.0551 64.1582 44.1778C64.1582 45.2879 64.7633 46.6042 66.0426 47.5252C67.6533 48.6839 70.0562 49.078 71.7676 49.078C72.95 49.078 73.9858 49.0745 75.3454 48.5763L75.9366 47.3155L75.6289 47.1847C74.2278 47.9795 72.686 48.1788 71.7676 48.116C70.9007 47.9928 69.6833 47.767 68.8949 46.7584C68.241 45.9409 68.0611 44.9812 68.0611 44.1778C68.0611 43.3445 68.2615 42.4204 68.9156 41.6029C69.7041 40.5766 70.8406 40.2304 71.7474 40.2304Z" fill="#F37B09"/>
<path d="M126.788 40.2304C127.666 40.2304 129.077 40.3342 130.229 41.3011L130.628 41.3516L131.15 39.8565C129.456 39.1868 127.917 39.1604 126.647 39.1465C124.935 39.1465 122.694 39.6434 121.084 40.8184C119.804 41.7372 119.199 43.0551 119.199 44.1778C119.199 45.2879 119.804 46.6042 121.084 47.5252C122.694 48.6839 125.097 49.078 126.809 49.078C127.991 49.078 129.027 49.0745 130.386 48.5763L130.978 47.3155L130.67 47.1847C129.269 47.9795 127.727 48.1788 126.809 48.116C125.942 47.9928 124.724 47.767 123.936 46.7584C123.282 45.9409 123.102 44.9812 123.102 44.1778C123.102 43.3445 123.303 42.4204 123.957 41.6029C124.745 40.5766 125.882 40.2304 126.788 40.2304Z" fill="#F37B09"/>
<path d="M77.8442 39.3882V40.8082H81.6115V45.5485V46.7722V48.7777H85.1191V46.7722V45.5485V41.8181V40.8082H85.9413H88.8986V39.3882H85.1518H83.769H77.8442Z" fill="#F37B09"/>
<path d="M99.8752 47.3482H94.3296V44.6611H99.3139V43.2499H94.3296V40.8029H99.5857V39.3901H90.6338V48.7778H99.8752V47.3482Z" fill="#F37B09"/>
<path d="M116.582 39.3872H113.308L109.537 47.0328L105.766 39.3872H101.61V48.7767H105.118V41.4537H105.122L105.118 41.5117H105.181L108.676 48.7777H110.398L113.894 41.5117H113.957V48.7767H117.464V39.3872H116.582ZM113.957 41.5099L113.953 41.4537H113.957V41.5099Z" fill="#F37B09"/>
</g>
<defs>
<clipPath id="clip0_20_226">
<rect width="168" height="65" fill="white"/>
</clipPath>
</defs>
</svg>
