<svg width="135" height="48" viewBox="0 0 135 48" fill="none" xmlns="http://www.w3.org/2000/svg">
<rect width="135" height="48"/>
<path d="M8.116 31.708V27.784L19.996 11.8H26.116L14.488 27.784L11.644 26.956H31.48V31.708H8.116ZM21.688 37V31.708L21.868 26.956V22.24H27.376V37H21.688ZM57.3699 31.708V27.784L69.2499 11.8H75.3699L63.7419 27.784L60.8979 26.956H80.7339V31.708H57.3699ZM70.9419 37V31.708L71.1219 26.956V22.24H76.6299V37H70.9419ZM83.479 31.888H88.9366V32.5504H83.479V31.888ZM83.5654 37H82.831V26.92H89.5702V27.5824H83.5654V37ZM94.3554 37.0576C93.6354 37.0576 92.9922 36.8944 92.4258 36.568C91.869 36.2416 91.4226 35.7904 91.0866 35.2144C90.7602 34.6384 90.597 33.9808 90.597 33.2416C90.597 32.4928 90.7602 31.8352 91.0866 31.2688C91.4226 30.6928 91.869 30.2416 92.4258 29.9152C92.9922 29.5888 93.6354 29.4256 94.3554 29.4256C95.0754 29.4256 95.7186 29.5888 96.285 29.9152C96.8514 30.2416 97.2978 30.6928 97.6242 31.2688C97.9506 31.8352 98.1138 32.4928 98.1138 33.2416C98.1138 33.9808 97.9506 34.6384 97.6242 35.2144C97.2978 35.7904 96.8514 36.2416 96.285 36.568C95.7186 36.8944 95.0754 37.0576 94.3554 37.0576ZM94.3554 36.4096C94.9314 36.4096 95.4498 36.28 95.9106 36.0208C96.3714 35.752 96.7314 35.3776 96.9906 34.8976C97.2498 34.4176 97.3794 33.8656 97.3794 33.2416C97.3794 32.608 97.2498 32.056 96.9906 31.5856C96.7314 31.1056 96.3714 30.736 95.9106 30.4768C95.4498 30.208 94.9314 30.0736 94.3554 30.0736C93.7794 30.0736 93.261 30.208 92.8002 30.4768C92.349 30.736 91.989 31.1056 91.7202 31.5856C91.461 32.056 91.3314 32.608 91.3314 33.2416C91.3314 33.8656 91.461 34.4176 91.7202 34.8976C91.989 35.3776 92.349 35.752 92.8002 36.0208C93.261 36.28 93.7794 36.4096 94.3554 36.4096ZM103.4 37.0576C102.757 37.0576 102.2 36.9424 101.73 36.712C101.259 36.472 100.895 36.1168 100.635 35.6464C100.386 35.1664 100.261 34.576 100.261 33.8752V29.4832H100.981V33.8176C100.981 34.6624 101.197 35.3056 101.629 35.7472C102.061 36.1888 102.671 36.4096 103.458 36.4096C104.024 36.4096 104.514 36.2896 104.927 36.0496C105.339 35.8096 105.656 35.4736 105.877 35.0416C106.098 34.6 106.208 34.0816 106.208 33.4864V29.4832H106.928V37H106.237V34.912L106.338 35.1568C106.117 35.7424 105.747 36.208 105.229 36.5536C104.72 36.8896 104.111 37.0576 103.4 37.0576ZM113.652 29.4256C114.267 29.4256 114.8 29.5456 115.251 29.7856C115.712 30.016 116.067 30.3712 116.316 30.8512C116.576 31.3216 116.705 31.9072 116.705 32.608V37H115.985V32.6656C115.985 31.8208 115.769 31.1776 115.337 30.736C114.915 30.2944 114.32 30.0736 113.552 30.0736C112.966 30.0736 112.457 30.1936 112.025 30.4336C111.593 30.6736 111.262 31.0096 111.032 31.4416C110.811 31.8736 110.7 32.392 110.7 32.9968V37H109.98V29.4832H110.672V31.5712L110.571 31.3408C110.801 30.7456 111.18 30.28 111.708 29.944C112.236 29.5984 112.884 29.4256 113.652 29.4256ZM122.564 37.0576C121.863 37.0576 121.229 36.8992 120.663 36.5824C120.106 36.256 119.665 35.8048 119.338 35.2288C119.012 34.6528 118.849 33.9904 118.849 33.2416C118.849 32.4832 119.012 31.8208 119.338 31.2544C119.665 30.6784 120.106 30.232 120.663 29.9152C121.229 29.5888 121.863 29.4256 122.564 29.4256C123.226 29.4256 123.821 29.5792 124.349 29.8864C124.887 30.1936 125.309 30.6304 125.617 31.1968C125.933 31.7632 126.092 32.4448 126.092 33.2416C126.092 34.0192 125.938 34.696 125.631 35.272C125.324 35.848 124.901 36.2896 124.364 36.5968C123.836 36.904 123.236 37.0576 122.564 37.0576ZM122.607 36.4096C123.183 36.4096 123.697 36.28 124.148 36.0208C124.609 35.752 124.969 35.3776 125.228 34.8976C125.497 34.4176 125.631 33.8656 125.631 33.2416C125.631 32.608 125.497 32.056 125.228 31.5856C124.969 31.1056 124.609 30.736 124.148 30.4768C123.697 30.208 123.183 30.0736 122.607 30.0736C122.031 30.0736 121.513 30.208 121.052 30.4768C120.601 30.736 120.241 31.1056 119.972 31.5856C119.713 32.056 119.583 32.608 119.583 33.2416C119.583 33.8656 119.713 34.4176 119.972 34.8976C120.241 35.3776 120.601 35.752 121.052 36.0208C121.513 36.28 122.031 36.4096 122.607 36.4096ZM125.645 37V34.5376L125.775 33.2272L125.631 31.9168V26.3152H126.351V37H125.645Z" fill="black"/>
<path d="M44.0243 37.432C41.9603 37.432 40.1123 36.928 38.4803 35.92C36.8483 34.888 35.5643 33.4 34.6283 31.456C33.6923 29.512 33.2243 27.16 33.2243 24.4C33.2243 21.64 33.6923 19.288 34.6283 17.344C35.5643 15.4 36.8483 13.924 38.4803 12.916C40.1123 11.884 41.9603 11.368 44.0243 11.368C46.1123 11.368 47.9603 11.884 49.5683 12.916C51.2003 13.924 52.4843 15.4 53.4203 17.344C54.3563 19.288 54.8243 21.64 54.8243 24.4C54.8243 27.16 54.3563 29.512 53.4203 31.456C52.4843 33.4 51.2003 34.888 49.5683 35.92C47.9603 36.928 46.1123 37.432 44.0243 37.432ZM44.0243 32.5C45.0083 32.5 45.8603 32.224 46.5803 31.672C47.3243 31.12 47.9003 30.244 48.3083 29.044C48.7403 27.844 48.9563 26.296 48.9563 24.4C48.9563 22.504 48.7403 20.956 48.3083 19.756C47.9003 18.556 47.3243 17.68 46.5803 17.128C45.8603 16.576 45.0083 16.3 44.0243 16.3C43.0643 16.3 42.2123 16.576 41.4683 17.128C40.7483 17.68 40.1723 18.556 39.7403 19.756C39.3323 20.956 39.1283 22.504 39.1283 24.4C39.1283 26.296 39.3323 27.844 39.7403 29.044C40.1723 30.244 40.7483 31.12 41.4683 31.672C42.2123 32.224 43.0643 32.5 44.0243 32.5Z" fill="#9447ff"/>
<path d="M129.512 37.06C129.104 37.06 128.744 36.916 128.432 36.628C128.144 36.316 128 35.944 128 35.512C128 35.08 128.144 34.72 128.432 34.432C128.744 34.144 129.104 34 129.512 34C129.92 34 130.268 34.144 130.556 34.432C130.868 34.72 131.024 35.08 131.024 35.512C131.024 35.944 130.868 36.316 130.556 36.628C130.268 36.916 129.92 37.06 129.512 37.06Z" fill="#9447ff"/>
</svg>
